<mxfile host="app.diagrams.net" modified="2020-11-07T06:36:49.926Z" agent="5.0 (Windows NT 10.0; Win64; x64) AppleWebKit/537.36 (KHTML, like Gecko) Chrome/86.0.4240.183 Safari/537.36 Edg/86.0.622.63" etag="0K1Z_rfhsrGpqoZaXbCD" version="13.9.2" type="github">
  <diagram id="SCPMQZU-KRGPK-8vWmiQ" name="Page-1">
    <mxGraphModel dx="2062" dy="1122" grid="0" gridSize="10" guides="1" tooltips="1" connect="1" arrows="1" fold="1" page="0" pageScale="1" pageWidth="850" pageHeight="1100" math="0" shadow="0">
      <root>
        <mxCell id="0" />
        <mxCell id="1" parent="0" />
        <mxCell id="vti_hvAgY39iQmyZZWum-4" value="" style="rounded=1;whiteSpace=wrap;html=1;fontStyle=1" parent="1" vertex="1">
          <mxGeometry x="220" y="40" width="420" height="280" as="geometry" />
        </mxCell>
        <mxCell id="vti_hvAgY39iQmyZZWum-10" style="edgeStyle=orthogonalEdgeStyle;rounded=0;orthogonalLoop=1;jettySize=auto;html=1;fontStyle=1" parent="1" source="vti_hvAgY39iQmyZZWum-1" target="vti_hvAgY39iQmyZZWum-5" edge="1">
          <mxGeometry relative="1" as="geometry" />
        </mxCell>
        <mxCell id="vti_hvAgY39iQmyZZWum-1" value="User Client" style="aspect=fixed;perimeter=ellipsePerimeter;html=1;align=center;shadow=0;dashed=0;spacingTop=3;image;image=img/lib/active_directory/laptop_client.svg;fontStyle=1" parent="1" vertex="1">
          <mxGeometry x="120" y="140" width="50" height="55.56" as="geometry" />
        </mxCell>
        <mxCell id="vti_hvAgY39iQmyZZWum-3" value="" style="endArrow=none;dashed=1;html=1;fontStyle=1" parent="1" edge="1">
          <mxGeometry width="50" height="50" relative="1" as="geometry">
            <mxPoint x="190" y="320" as="sourcePoint" />
            <mxPoint x="190" y="20" as="targetPoint" />
          </mxGeometry>
        </mxCell>
        <mxCell id="vti_hvAgY39iQmyZZWum-14" style="edgeStyle=none;rounded=0;orthogonalLoop=1;jettySize=auto;html=1;entryX=0.5;entryY=0;entryDx=0;entryDy=0;fontStyle=1" parent="1" source="vti_hvAgY39iQmyZZWum-5" target="vti_hvAgY39iQmyZZWum-13" edge="1">
          <mxGeometry relative="1" as="geometry" />
        </mxCell>
        <mxCell id="vti_hvAgY39iQmyZZWum-5" value="User Agent" style="ellipse;whiteSpace=wrap;html=1;fontStyle=1;fillColor=#dae8fc;strokeColor=#6c8ebf;" parent="1" vertex="1">
          <mxGeometry x="240" y="140" width="90" height="55" as="geometry" />
        </mxCell>
        <mxCell id="vti_hvAgY39iQmyZZWum-12" style="rounded=0;orthogonalLoop=1;jettySize=auto;html=1;entryX=1;entryY=0.5;entryDx=0;entryDy=0;fontStyle=1" parent="1" source="vti_hvAgY39iQmyZZWum-6" target="vti_hvAgY39iQmyZZWum-8" edge="1">
          <mxGeometry relative="1" as="geometry" />
        </mxCell>
        <mxCell id="vti_hvAgY39iQmyZZWum-17" style="edgeStyle=none;rounded=0;orthogonalLoop=1;jettySize=auto;html=1;entryX=0.5;entryY=0;entryDx=0;entryDy=0;fontStyle=1" parent="1" source="vti_hvAgY39iQmyZZWum-6" target="vti_hvAgY39iQmyZZWum-13" edge="1">
          <mxGeometry relative="1" as="geometry">
            <mxPoint x="430" y="360" as="targetPoint" />
          </mxGeometry>
        </mxCell>
        <mxCell id="vti_hvAgY39iQmyZZWum-6" value="PHS Agent" style="ellipse;whiteSpace=wrap;html=1;fontStyle=1;fillColor=#e1d5e7;strokeColor=#9673a6;" parent="1" vertex="1">
          <mxGeometry x="510" y="60" width="90" height="55" as="geometry" />
        </mxCell>
        <mxCell id="vti_hvAgY39iQmyZZWum-16" style="edgeStyle=none;rounded=0;orthogonalLoop=1;jettySize=auto;html=1;entryX=0.5;entryY=0;entryDx=0;entryDy=0;fontStyle=1" parent="1" source="vti_hvAgY39iQmyZZWum-7" target="vti_hvAgY39iQmyZZWum-13" edge="1">
          <mxGeometry relative="1" as="geometry" />
        </mxCell>
        <mxCell id="vti_hvAgY39iQmyZZWum-7" value="Lab Agent" style="ellipse;whiteSpace=wrap;html=1;fontStyle=1;fillColor=#d5e8d4;strokeColor=#82b366;" parent="1" vertex="1">
          <mxGeometry x="510" y="220" width="90" height="55" as="geometry" />
        </mxCell>
        <mxCell id="vti_hvAgY39iQmyZZWum-15" style="edgeStyle=none;rounded=0;orthogonalLoop=1;jettySize=auto;html=1;fontStyle=1" parent="1" source="vti_hvAgY39iQmyZZWum-8" target="vti_hvAgY39iQmyZZWum-5" edge="1">
          <mxGeometry relative="1" as="geometry" />
        </mxCell>
        <mxCell id="vti_hvAgY39iQmyZZWum-8" value="Alert Agent" style="ellipse;whiteSpace=wrap;html=1;fontStyle=1;fillColor=#ffe6cc;strokeColor=#d79b00;" parent="1" vertex="1">
          <mxGeometry x="370" y="140.56" width="90" height="55" as="geometry" />
        </mxCell>
        <mxCell id="vti_hvAgY39iQmyZZWum-13" value="Database" style="shape=datastore;whiteSpace=wrap;html=1;fontStyle=1;fillColor=#f5f5f5;strokeColor=#666666;fontColor=#333333;" parent="1" vertex="1">
          <mxGeometry x="382.5" y="240" width="95" height="70" as="geometry" />
        </mxCell>
        <mxCell id="vti_hvAgY39iQmyZZWum-22" style="edgeStyle=none;rounded=0;orthogonalLoop=1;jettySize=auto;html=1;entryX=1;entryY=0.5;entryDx=0;entryDy=0;fontStyle=1" parent="1" source="vti_hvAgY39iQmyZZWum-18" target="vti_hvAgY39iQmyZZWum-6" edge="1">
          <mxGeometry relative="1" as="geometry" />
        </mxCell>
        <mxCell id="vti_hvAgY39iQmyZZWum-18" value="PHS user" style="aspect=fixed;perimeter=ellipsePerimeter;html=1;align=center;shadow=0;dashed=0;spacingTop=3;image;image=img/lib/active_directory/laptop_client.svg;fontStyle=1" parent="1" vertex="1">
          <mxGeometry x="710" y="59.44" width="50" height="55.56" as="geometry" />
        </mxCell>
        <mxCell id="vti_hvAgY39iQmyZZWum-21" style="edgeStyle=none;rounded=0;orthogonalLoop=1;jettySize=auto;html=1;entryX=1;entryY=0.5;entryDx=0;entryDy=0;fontStyle=1" parent="1" source="vti_hvAgY39iQmyZZWum-20" target="vti_hvAgY39iQmyZZWum-7" edge="1">
          <mxGeometry relative="1" as="geometry" />
        </mxCell>
        <mxCell id="vti_hvAgY39iQmyZZWum-20" value="Lab user" style="aspect=fixed;perimeter=ellipsePerimeter;html=1;align=center;shadow=0;dashed=0;spacingTop=3;image;image=img/lib/active_directory/laptop_client.svg;fontStyle=1" parent="1" vertex="1">
          <mxGeometry x="710" y="220" width="50" height="55.56" as="geometry" />
        </mxCell>
      </root>
    </mxGraphModel>
  </diagram>
</mxfile>
